<svg xmlns="http://www.w3.org/2000/svg" width="960" height="540" viewBox="0 0 960 540" role="img" aria-labelledby="title desc"><title id="title">Trace-wide interval share includes unrelated GPU work</title><desc id="desc">Derived shares of measured counts; each capture totals 100%.</desc><rect width="960" height="540" fill="#f4f1ea"/><rect x="20" y="20" width="920" height="500" fill="#fbfaf7" stroke="#d2cec5"/><text x="92" y="56" fill="#16181a" font-family="-apple-system, BlinkMacSystemFont, sans-serif" font-size="23" font-weight="600">Trace-wide interval share includes unrelated GPU work</text><text x="92" y="82" fill="#5b6167" font-family="ui-monospace, monospace" font-size="13">Derived shares of measured counts; each capture totals 100%.</text><line x1="92" y1="460" x2="926" y2="460" stroke="#16181a"/><line x1="92" y1="112" x2="92" y2="460" stroke="#16181a"/><text x="25" y="286.0" transform="rotate(-90 25 286.0)" fill="#5b6167" font-family="ui-monospace, monospace" font-size="12">percent of trace intervals</text><text x="175.4" y="488" text-anchor="middle" fill="#16181a" font-family="ui-monospace, monospace" font-size="13">400</text><rect x="121.4" y="258.6" width="49.0" height="201.4" fill="#c23d16"/><text x="145.9" y="251.6" text-anchor="middle" fill="#16181a" font-family="ui-monospace, monospace" font-size="12">47.7</text><rect x="175.4" y="239.1" width="49.0" height="220.9" fill="#4a5157"/><text x="199.9" y="232.1" text-anchor="middle" fill="#16181a" font-family="ui-monospace, monospace" font-size="12">52.3</text><text x="342.2" y="488" text-anchor="middle" fill="#16181a" font-family="ui-monospace, monospace" font-size="13">250</text><rect x="288.2" y="232.4" width="49.0" height="227.6" fill="#c23d16"/><text x="312.7" y="225.4" text-anchor="middle" fill="#16181a" font-family="ui-monospace, monospace" font-size="12">53.9</text><rect x="342.2" y="265.3" width="49.0" height="194.7" fill="#4a5157"/><text x="366.7" y="258.3" text-anchor="middle" fill="#16181a" font-family="ui-monospace, monospace" font-size="12">46.1</text><text x="509.0" y="488" text-anchor="middle" fill="#16181a" font-family="ui-monospace, monospace" font-size="13">120</text><rect x="455.0" y="345.6" width="49.0" height="114.4" fill="#c23d16"/><text x="479.5" y="338.6" text-anchor="middle" fill="#16181a" font-family="ui-monospace, monospace" font-size="12">27.1</text><rect x="509.0" y="152.2" width="49.0" height="307.8" fill="#4a5157"/><text x="533.5" y="145.2" text-anchor="middle" fill="#16181a" font-family="ui-monospace, monospace" font-size="12">72.9</text><text x="675.8" y="488" text-anchor="middle" fill="#16181a" font-family="ui-monospace, monospace" font-size="13">77</text><rect x="621.8" y="363.7" width="49.0" height="96.3" fill="#c23d16"/><text x="646.3" y="356.7" text-anchor="middle" fill="#16181a" font-family="ui-monospace, monospace" font-size="12">22.8</text><rect x="675.8" y="134.0" width="49.0" height="326.0" fill="#4a5157"/><text x="700.3" y="127.0" text-anchor="middle" fill="#16181a" font-family="ui-monospace, monospace" font-size="12">77.2</text><text x="842.6" y="488" text-anchor="middle" fill="#16181a" font-family="ui-monospace, monospace" font-size="13">133</text><rect x="788.6" y="351.9" width="49.0" height="108.1" fill="#c23d16"/><text x="813.1" y="344.9" text-anchor="middle" fill="#16181a" font-family="ui-monospace, monospace" font-size="12">25.6</text><rect x="842.6" y="145.8" width="49.0" height="314.2" fill="#4a5157"/><text x="867.1" y="138.8" text-anchor="middle" fill="#16181a" font-family="ui-monospace, monospace" font-size="12">74.4</text><rect x="92" y="94" width="10" height="10" fill="#c23d16"/><text x="108" y="103" fill="#5b6167" font-family="ui-monospace, monospace" font-size="11">target PID share</text><rect x="282" y="94" width="10" height="10" fill="#4a5157"/><text x="298" y="103" fill="#5b6167" font-family="ui-monospace, monospace" font-size="11">unrelated share</text></svg>
