<svg xmlns="http://www.w3.org/2000/svg" width="960" height="540" viewBox="0 0 960 540" role="img" aria-labelledby="title desc"><title id="title">Trace-wide interval share includes unrelated GPU work</title><desc id="desc">Derived shares of measured counts; each capture totals 100%.</desc><rect width="960" height="540" fill="#f4f1ea"/><rect x="20" y="20" width="920" height="500" fill="#fbfaf7" stroke="#d2cec5"/><text x="92" y="56" fill="#16181a" font-family="-apple-system, BlinkMacSystemFont, sans-serif" font-size="23" font-weight="600">Trace-wide interval share includes unrelated GPU work</text><text x="92" y="82" fill="#5b6167" font-family="ui-monospace, monospace" font-size="13">Derived shares of measured counts; each capture totals 100%.</text><line x1="92" y1="460" x2="926" y2="460" stroke="#16181a"/><line x1="92" y1="112" x2="92" y2="460" stroke="#16181a"/><text x="25" y="286.0" transform="rotate(-90 25 286.0)" fill="#5b6167" font-family="ui-monospace, monospace" font-size="12">percent of trace intervals</text><text x="175.4" y="488" text-anchor="middle" fill="#16181a" font-family="ui-monospace, monospace" font-size="13">400</text><rect x="112.8" y="177.1" width="36.7" height="282.9" fill="#c23d16"/><text x="131.2" y="170.1" text-anchor="middle" fill="#16181a" font-family="ui-monospace, monospace" font-size="12">55.1</text><rect x="154.6" y="229.5" width="36.7" height="230.5" fill="#4a5157"/><text x="172.9" y="222.5" text-anchor="middle" fill="#16181a" font-family="ui-monospace, monospace" font-size="12">44.9</text><rect x="196.2" y="460.0" width="36.7" height="0.0" fill="#6f6230"/><text x="214.6" y="453.0" text-anchor="middle" fill="#16181a" font-family="ui-monospace, monospace" font-size="12">0</text><text x="342.2" y="488" text-anchor="middle" fill="#16181a" font-family="ui-monospace, monospace" font-size="13">250</text><rect x="279.7" y="134.0" width="36.7" height="326.0" fill="#c23d16"/><text x="298.0" y="127.0" text-anchor="middle" fill="#16181a" font-family="ui-monospace, monospace" font-size="12">63.5</text><rect x="321.4" y="272.6" width="36.7" height="187.4" fill="#4a5157"/><text x="339.7" y="265.6" text-anchor="middle" fill="#16181a" font-family="ui-monospace, monospace" font-size="12">36.5</text><rect x="363.1" y="460.0" width="36.7" height="0.0" fill="#6f6230"/><text x="381.4" y="453.0" text-anchor="middle" fill="#16181a" font-family="ui-monospace, monospace" font-size="12">0</text><text x="509.0" y="488" text-anchor="middle" fill="#16181a" font-family="ui-monospace, monospace" font-size="13">120</text><rect x="446.4" y="192.0" width="36.7" height="268.0" fill="#c23d16"/><text x="464.8" y="185.0" text-anchor="middle" fill="#16181a" font-family="ui-monospace, monospace" font-size="12">52.2</text><rect x="488.1" y="214.6" width="36.7" height="245.4" fill="#4a5157"/><text x="506.5" y="207.6" text-anchor="middle" fill="#16181a" font-family="ui-monospace, monospace" font-size="12">47.8</text><rect x="529.9" y="460.0" width="36.7" height="0.0" fill="#6f6230"/><text x="548.2" y="453.0" text-anchor="middle" fill="#16181a" font-family="ui-monospace, monospace" font-size="12">0</text><text x="675.8" y="488" text-anchor="middle" fill="#16181a" font-family="ui-monospace, monospace" font-size="13">77</text><rect x="613.3" y="241.8" width="36.7" height="218.2" fill="#c23d16"/><text x="631.6" y="234.8" text-anchor="middle" fill="#16181a" font-family="ui-monospace, monospace" font-size="12">42.5</text><rect x="655.0" y="164.8" width="36.7" height="295.2" fill="#4a5157"/><text x="673.3" y="157.8" text-anchor="middle" fill="#16181a" font-family="ui-monospace, monospace" font-size="12">57.5</text><rect x="696.7" y="460.0" width="36.7" height="0.0" fill="#6f6230"/><text x="715.0" y="453.0" text-anchor="middle" fill="#16181a" font-family="ui-monospace, monospace" font-size="12">0</text><text x="842.6" y="488" text-anchor="middle" fill="#16181a" font-family="ui-monospace, monospace" font-size="13">133</text><rect x="780.1" y="190.0" width="36.7" height="270.0" fill="#c23d16"/><text x="798.4" y="183.0" text-anchor="middle" fill="#16181a" font-family="ui-monospace, monospace" font-size="12">52.6</text><rect x="821.8" y="216.7" width="36.7" height="243.3" fill="#4a5157"/><text x="840.1" y="209.7" text-anchor="middle" fill="#16181a" font-family="ui-monospace, monospace" font-size="12">47.4</text><rect x="863.5" y="460.0" width="36.7" height="0.0" fill="#6f6230"/><text x="881.8" y="453.0" text-anchor="middle" fill="#16181a" font-family="ui-monospace, monospace" font-size="12">0</text><rect x="92" y="94" width="10" height="10" fill="#c23d16"/><text x="108" y="103" fill="#5b6167" font-family="ui-monospace, monospace" font-size="11">target PID share</text><rect x="282" y="94" width="10" height="10" fill="#4a5157"/><text x="298" y="103" fill="#5b6167" font-family="ui-monospace, monospace" font-size="11">known unrelated share</text><rect x="472" y="94" width="10" height="10" fill="#6f6230"/><text x="488" y="103" fill="#5b6167" font-family="ui-monospace, monospace" font-size="11">unattributed share</text></svg>
